<svg xmlns:xlink="http://www.w3.org/1999/xlink" xmlns="http://www.w3.org/2000/svg" version="1.0" width="417" height="79" viewBox="0 0 417.000000 79.000000" preserveAspectRatio="xMidYMid meet" nighteye="disabled">

<g transform="translate(0.000000,79.000000) scale(0.100000,-0.100000)" fill="#000000" stroke="none">
<path d="M35 783 c-11 -2 -24 -10 -30 -15 -7 -7 -3 -8 12 -4 33 10 143 -12 188 -39 22 -13 55 -38 74 -57 39 -37 212 -265 288 -378 56 -83 130 -170 144 -170 6 0 8 109 7 272 l-3 273 -37 3 -37 3 -3 -140 -3 -141 -64 91 c-35 50 -97 126 -137 168 -97 103 -160 133 -289 137 -49 2 -99 0 -110 -3z"/>
<path d="M220 397 l0 -277 40 0 39 0 3 137 3 138 76 -105 c94 -129 172 -211 227 -239 95 -48 218 -63 297 -35 l40 14 -50 -5 c-67 -7 -140 16 -200 61 -42 33 -175 202 -347 444 -25 36 -65 83 -87 105 l-41 39 0 -277z"/>
<path d="M3680 654 c-69 -19 -118 -58 -150 -120 -21 -40 -25 -62 -25 -134 0 -105 21 -165 75 -214 40 -36 119 -66 176 -66 101 0 202 72 229 163 18 60 19 160 4 222 -30 121 -169 188 -309 149z m126 -69 c51 -21 74 -77 74 -185 0 -102 -22 -160 -69 -184 -40 -21 -69 -20 -109 4 -47 29 -62 73 -62 182 0 109 17 153 71 180 41 22 50 22 95 3z"/>
<path d="M1213 641 c-54 -25 -76 -60 -77 -121 -1 -67 22 -94 130 -152 128 -70 151 -104 98 -153 -22 -20 -37 -25 -78 -25 -28 1 -69 7 -91 15 -22 8 -41 15 -42 15 -2 0 -3 -15 -3 -34 0 -37 15 -46 102 -61 162 -27 288 91 234 219 -17 40 -59 73 -148 115 -70 33 -87 56 -74 99 13 41 96 54 171 27 22 -8 41 -15 43 -15 2 0 2 14 0 32 -3 29 -7 33 -53 45 -73 19 -162 16 -212 -6z"/>
<path d="M1550 396 l0 -266 55 0 55 0 0 94 0 93 69 5 c128 9 184 62 184 173 0 64 -25 111 -73 140 -29 17 -56 21 -162 24 l-128 3 0 -266z m204 183 c54 -25 60 -124 11 -166 -18 -16 -39 -23 -66 -23 l-39 0 0 100 0 100 35 0 c19 0 45 -5 59 -11z"/>
<path d="M1950 396 l0 -266 55 0 55 0 0 95 0 95 28 0 c24 0 34 -12 81 -95 l55 -95 63 0 c35 0 63 2 63 4 0 3 -27 51 -60 108 l-60 103 26 19 c55 40 73 160 34 223 -33 55 -69 67 -212 71 l-128 4 0 -266z m230 164 c15 -15 20 -33 20 -73 0 -65 -17 -84 -83 -93 l-47 -7 0 97 0 96 45 0 c32 0 51 -6 65 -20z"/>
<path d="M2823 640 c-58 -26 -85 -71 -80 -133 5 -61 35 -93 131 -143 90 -47 116 -70 116 -105 0 -62 -93 -88 -190 -54 -23 8 -44 15 -46 15 -2 0 -4 -16 -4 -35 0 -32 3 -35 43 -47 23 -6 74 -12 112 -12 110 0 176 43 195 128 18 81 -22 136 -143 197 -90 46 -110 73 -84 113 9 14 32 29 51 34 37 11 120 -1 142 -19 16 -13 28 8 22 37 -8 42 -191 58 -265 24z"/>
<path d="M3195 646 c-48 -21 -77 -60 -82 -109 -9 -80 28 -123 165 -191 50 -25 76 -44 82 -62 28 -73 -86 -121 -187 -79 -49 21 -53 19 -53 -16 0 -24 6 -32 33 -44 132 -55 290 -7 318 98 23 87 -15 142 -149 212 -73 38 -77 42 -80 77 -2 28 2 40 20 52 28 20 90 20 143 1 22 -8 41 -15 43 -15 1 0 2 15 2 33 0 32 -2 34 -51 45 -67 16 -167 15 -204 -2z"/>
<path d="M780 390 l0 -260 165 0 165 0 0 35 0 35 -105 0 -105 0 0 85 0 85 85 0 85 0 0 30 0 30 -85 0 -85 0 0 80 0 80 105 0 105 0 0 30 0 30 -165 0 -165 0 0 -260z"/>
<path d="M2382 393 l3 -258 163 -3 162 -2 0 35 0 35 -105 0 -105 0 0 85 0 85 85 0 85 0 0 30 0 30 -85 0 -85 0 0 80 0 80 105 0 105 0 0 30 0 30 -165 0 -165 0 2 -257z"/>
</g>
</svg>